<?xml version="1.0" encoding="UTF-8"?>
<svg id="Layer_1" data-name="Layer 1" xmlns="http://www.w3.org/2000/svg" xmlns:xlink="http://www.w3.org/1999/xlink" viewBox="0 0 1080 1080">
  <defs>
    <style>
      .cls-1 {
        fill: url(#linear-gradient);
        stroke: #fff;
        stroke-miterlimit: 10;
      }
    </style>
    <linearGradient id="linear-gradient" x1="379.8" y1="372.04" x2="695.2" y2="687.44" gradientUnits="userSpaceOnUse">
      <stop offset="0" stop-color="#b0f"/>
      <stop offset="1" stop-color="#ec1e24"/>
    </linearGradient>
  </defs>
  <path class="cls-1" d="M643.08,629.07c-1.05,1.03-2.1,2.06-3.14,3.1-61.75,61.75-99.94,147.05-99.94,241.26,0-94.21-38.19-179.51-99.94-241.26-1.05-1.05-2.1-2.09-3.16-3.13,66.02.08,136.24.09,206.18.03ZM382.2,585.68c13.74,8.77,26.81,18.5,39.12,29.1,39.58-.74,79.16-1.06,118.68-1.17,39.52.12,79.08.46,118.64,1.21,12.3-10.6,25.36-20.33,39.1-29.11-107.2.16-217.9.14-315.54-.03ZM356.93,542.34c-19.3-.01-46.98-.06-75.93-.13,28.07,6.94,54.77,17.36,79.62,30.77,59.81-1.85,119.66-2.5,179.38-2.67,59.71.19,119.53.85,179.3,2.71,24.88-13.44,51.62-23.87,79.74-30.82-145.35.39-308.08.42-442.11.14ZM609.63,397.62c-43.69-57.33-69.63-128.93-69.63-206.58,0,77.64-25.93,149.23-69.62,206.56,23.22-.25,46.43-.39,69.62-.45,23.2.07,46.41.22,69.63.47ZM639.94,432.3c-6.32-6.32-12.39-12.88-18.19-19.67-55.34.03-110.58.03-163.48-.02-8.67,10.15-17.93,19.79-27.73,28.84,36.51-.63,73.01-.91,109.46-1.01,36.47.12,72.98.41,109.49,1.04-3.24-2.99-6.43-6.06-9.55-9.18ZM666.07,455.87c-85.62.1-172.43.09-252.11-.02-13.74,11.18-28.37,21.32-43.76,30.27,56.62-1.64,113.27-2.23,169.8-2.39,56.57.18,113.24.78,169.87,2.43-15.41-8.96-30.05-19.09-43.8-30.29ZM734.26,499.05c-127.58.25-262.91.24-377.33,0-3.46,0-7.19,0-11.15-.01-44.51,21.29-94.35,33.2-146.98,33.2,15.04,0,29.85.97,44.37,2.86h.01c98.78-6.21,197.98-7.8,296.82-8.08,98.84.32,197.96,1.92,296.72,8.1h.02c14.55-1.9,29.4-2.88,44.46-2.88-52.61,0-102.44-11.91-146.94-33.19Z"/>
</svg>